<svg xmlns="http://www.w3.org/2000/svg" xmlns:xlink="http://www.w3.org/1999/xlink" width="100" height="93.6" viewBox="0 0 100 93.6">
  <defs>
    <linearGradient id="linear-gradient" x1="0.971" y1="0.5" x2="0.031" y2="0.5" gradientUnits="objectBoundingBox">
      <stop offset="0" stop-color="#257bc1"/>
      <stop offset="1" stop-color="#17445f"/>
    </linearGradient>
  </defs>
  <g id="Group_2025" data-name="Group 2025" transform="translate(-527 -938.4)">
    <rect id="Rectangle_310" data-name="Rectangle 310" width="100" height="30" rx="15" transform="translate(527 1002)" fill="url(#linear-gradient)"/>
    <text id="期間限定" transform="translate(577 1024)" fill="#fff" font-size="20" font-family="YuGothic-Bold, Yu Gothic" font-weight="700"><tspan x="-40" y="0">期間限定</tspan></text>
    <g id="Group_2010" data-name="Group 2010" transform="translate(522.854 926.855)">
      <path id="Path_1450" data-name="Path 1450" d="M28.756,18.25S17.1,25.6,14.861,39.8L11.173,41.92S9.695,24.812,28.756,18.25Z" transform="translate(0 5.741)" fill="#17445f"/>
      <g id="Group_2009" data-name="Group 2009" transform="translate(23.049 11.545)">
        <path id="Path_1451" data-name="Path 1451" d="M25.943,73.64c3.424,1.437,6.048,4.775,9.735,5.47a49.219,49.219,0,0,0,22.445-.556,19.556,19.556,0,0,0,2.712-.815l2.673-.927c1.765-.654,3.428-1.519,5.137-2.272a45.686,45.686,0,0,0,9.485-6.353c5.764-5.081,10.12-12.928,8.394-21.521l.056.292a15.312,15.312,0,0,0-1.324-4.41,13.355,13.355,0,0,0-1.2-2.021,10.542,10.542,0,0,0,2.8-3.84,19.774,19.774,0,0,0,1.461-5.347,16.99,16.99,0,0,0,.174-2.81,14.833,14.833,0,0,0-.45-2.945,12.358,12.358,0,0,0-2.863-5.294l-.118-.111a12.265,12.265,0,0,0-3.424-2.355c-.336-.146-.68-.279-1.029-.392-.319-.094-.587-.191-.934-.277a10.824,10.824,0,0,0-2.165-.332,10.26,10.26,0,0,0-4.384.772,9.805,9.805,0,0,0-2.75,1.716,12.714,12.714,0,0,0-3.945-5.65l-.006,0-.007,0a11.6,11.6,0,0,0-3.493-1.7,12.1,12.1,0,0,0-3.876-.375,8.761,8.761,0,0,0-6.554,3.884,7.2,7.2,0,0,0-.233,7.559,5.049,5.049,0,0,0,3.211,2.271A3.6,3.6,0,0,0,59.2,24.1l.013-.017.009-.019a3.617,3.617,0,0,0,.372-1,1.613,1.613,0,0,0-.179-1.15,1.5,1.5,0,0,0-.956-.688,2.894,2.894,0,0,1-.837-.212,1.62,1.62,0,0,1,.035-2.025,2.768,2.768,0,0,1,2.058-1.06,4.524,4.524,0,0,1,4.057,2.385c1.7,2.964.445,7.085-2.344,8.979a9.436,9.436,0,0,1-9.734.594,10.233,10.233,0,0,1-2.35-1.6,1.534,1.534,0,0,1-.049-1.047,1.282,1.282,0,0,1,.764-.884,1.425,1.425,0,0,1,.906.058.582.582,0,0,1,.377.641l.041-.022c-.118.116-.134.234-.316.174l-.015-.006a.077.077,0,0,0-.03,0,.079.079,0,0,0-.071.082.37.37,0,0,0,.28.3,1.062,1.062,0,0,0,.4.019l.043-.022a1.107,1.107,0,0,0,.652-1.1,1.567,1.567,0,0,0-.568-1.165,1.9,1.9,0,0,0-2.3-.036A2.448,2.448,0,0,0,48.389,27.1c0,.071.006.142.006.214-.2-.238-.405-.474-.585-.729a13.409,13.409,0,0,1-2.045-4.727.135.135,0,0,0-.146-.1.137.137,0,0,0-.121.15l0,.017a15.486,15.486,0,0,0,.482,2.651A12.71,12.71,0,0,0,47.074,27.1,11.041,11.041,0,0,0,48.481,29a5.389,5.389,0,0,0-.652-.21l-.019,0a5.474,5.474,0,0,0-3.7.674,4.261,4.261,0,0,0-2.064,3.181,3.576,3.576,0,0,0,1.6,3.406,2.521,2.521,0,0,0,1.937.283,1.773,1.773,0,0,0,1.373-1.384l0-.017v-.009a1.53,1.53,0,0,0-.127-.665.753.753,0,0,0-.585-.418.137.137,0,0,0-.106.041.13.13,0,0,0,.009.182l.054.049a.291.291,0,0,1,.058.414l-.235.378.011-.118a.577.577,0,0,1-.448.071.784.784,0,0,1-.39-.142.539.539,0,0,1-.318-.253.807.807,0,0,1-.118-.257,3.7,3.7,0,0,1-.118-.659.969.969,0,0,1,.019-.294,1.344,1.344,0,0,1,.056-.32,2.718,2.718,0,0,1,.766-1.223,2.068,2.068,0,0,1,.364-.281l.319-.174.205-.126a2.827,2.827,0,0,1,1.179-.38l-.148-.028a6.451,6.451,0,0,1,1.661-.009,11.036,11.036,0,0,1,2,.5l.067.022c.017.006.034-.007.05-.009a10.806,10.806,0,0,0,5.578,1.549,11.166,11.166,0,0,0,5.9-1.733,10.254,10.254,0,0,0,1.287-.976,7.268,7.268,0,0,0,.643-.65,11.315,11.315,0,0,0,.824,2,9.578,9.578,0,0,0,1.225,1.753,6.408,6.408,0,0,0-3.256.272,5.09,5.09,0,0,0-2.012,1.388,7.1,7.1,0,0,0-3.037-1.576l-.015,0A6.351,6.351,0,0,0,54,34.029a4.905,4.905,0,0,0-2.4,3.691,4.135,4.135,0,0,0,1.851,3.936,2.891,2.891,0,0,0,2.225.32,2.051,2.051,0,0,0,1.58-1.566l0-.013v-.011a1.738,1.738,0,0,0-.133-.764.854.854,0,0,0-.659-.48.129.129,0,0,0-.118.049.133.133,0,0,0,.022.184l.05.039a.369.369,0,0,1,.14.474,3.18,3.18,0,0,1-.219.48l.011-.118a.8.8,0,0,1-.525.208,1.217,1.217,0,0,1-.532-.067.9.9,0,0,1-.474-.247,1.05,1.05,0,0,1-.265-.311,3.426,3.426,0,0,1-.34-.89,1.435,1.435,0,0,1-.009-.455A2.368,2.368,0,0,1,54.242,38a3.238,3.238,0,0,1,.389-.91,2.53,2.53,0,0,1,.732-.828,3.234,3.234,0,0,1,.5-.367c.1-.058.273-.131.4-.2.093-.051.189-.094.286-.135a4.134,4.134,0,0,1,1.5-.38l-.148-.026a7.477,7.477,0,0,1,1.984.126c.3.064.616.154.938.253a4.379,4.379,0,0,0-.482,1.094,4.134,4.134,0,0,0,1.1,4.209,2.888,2.888,0,0,0,2.128.725A2.046,2.046,0,0,0,65.4,40.318l0-.013,0-.009a1.756,1.756,0,0,0,.009-.777.851.851,0,0,0-.558-.592.13.13,0,0,0-.136.21l.043.047a.373.373,0,0,1,.049.493,3.231,3.231,0,0,1-.3.433l.034-.114a.8.8,0,0,1-.555.107,1.213,1.213,0,0,1-.51-.165.918.918,0,0,1-.422-.33,1.042,1.042,0,0,1-.2-.356,3.489,3.489,0,0,1-.172-.937,1.511,1.511,0,0,1,.075-.45,2.352,2.352,0,0,1,.123-.468,3.258,3.258,0,0,1,.547-.824,2.558,2.558,0,0,1,.87-.678,3.5,3.5,0,0,1,.562-.268c.1-.039.293-.079.426-.12.1-.032.2-.058.306-.081a4.144,4.144,0,0,1,1.541-.1L67,35.275a7.546,7.546,0,0,1,1.928.487,12.561,12.561,0,0,1,1.466.762A9.535,9.535,0,0,0,66.811,39.3a8.636,8.636,0,0,0-1.756,4.129,7.768,7.768,0,0,0,.7,4.509,6.163,6.163,0,0,0,3.6,3.114,5.264,5.264,0,0,0,2.552.195,4.446,4.446,0,0,0,1.319-.457,4.133,4.133,0,0,0,1.136-.888l.11-.126.045-.069a4.767,4.767,0,0,0,.592-1.255,2.712,2.712,0,0,0-.743-2.819,2.5,2.5,0,0,0-.951-.56l-.1-.028c.011-.019.022-.049.032-.054a1.353,1.353,0,0,1,1.067-.453,2.831,2.831,0,0,1,1.5.538,2.638,2.638,0,0,1,.615.562A4.015,4.015,0,0,1,77,46.4c1.11,2.237-.125,5.541-2.514,6.855a8,8,0,0,1-8.28-.245,10.03,10.03,0,0,1-4.6-7.527.352.352,0,0,0-.374-.3.346.346,0,0,0-.308.377A12.829,12.829,0,0,0,62.18,50.33c.1.195.217.377.327.566a16.168,16.168,0,0,0-4.124-1.619l-.153-.056a14.061,14.061,0,0,0-5.124,0,12.637,12.637,0,0,0-4.541,1.832.493.493,0,0,0-.189.238,5.838,5.838,0,0,0-2.01,2.924c-.009.028-.013.056-.021.084-.133-.135-.245-.287-.387-.412l-.041-.03a8.308,8.308,0,0,0-2.637-1.424,11.028,11.028,0,0,0-1.474-.318,7.885,7.885,0,0,0-1.563-.081A7.31,7.31,0,0,0,34.7,55.092a5.762,5.762,0,0,0-.185,6.679,4.139,4.139,0,0,0,.85.875,3.778,3.778,0,0,0-1.233.528,5.27,5.27,0,0,0-.527.45,3.515,3.515,0,0,0-.473.558,3.206,3.206,0,0,0-.31,2.9,2.639,2.639,0,0,0,2.37,1.714,1.858,1.858,0,0,0,1.4-.6,1.3,1.3,0,0,0,.3-1.426l-.009-.028a1.1,1.1,0,0,0-.336-.318.439.439,0,0,0-.437.017c.3-.015.385.236.439.463l-.009-.026c.011.658-.781.991-1.27.862a1.746,1.746,0,0,1-1.2-1.133,2.2,2.2,0,0,1,.179-1.737,2.45,2.45,0,0,1,.262-.4,4.141,4.141,0,0,1,.346-.377,3.071,3.071,0,0,1,.855-.568l-.039.011a3.732,3.732,0,0,1,.831-.227,4.085,4.085,0,0,0,1.151.307,3.557,3.557,0,0,0,1.844-.259A2.748,2.748,0,0,0,40.879,62.1l.049-.082a2.614,2.614,0,0,0,.11-1.148,1.119,1.119,0,0,0-.73-.9.15.15,0,0,0-.12.019.148.148,0,0,0-.043.2l0,.006c.338.513.022.837-.316,1.261l.049-.081c-1.048.762-2.639-.077-3.09-1.092a4.35,4.35,0,0,1-.428-1.873,4.4,4.4,0,0,1,.435-2.02,5.019,5.019,0,0,1,3.629-2.544,6.159,6.159,0,0,1,1.21-.071,9.684,9.684,0,0,1,1.265.129,8.094,8.094,0,0,1,2.361.925,7.729,7.729,0,0,1,.887.716,4.748,4.748,0,0,0,1.158,3.316,5.271,5.271,0,0,0,.925.77,3.445,3.445,0,0,0,1.151.487,2.873,2.873,0,0,0,2.391-.438l.08-.052a2.642,2.642,0,0,0,.605-.982,1.116,1.116,0,0,0-.262-1.126.141.141,0,0,0-.116-.037.145.145,0,0,0-.125.161v.007c.077.611-.349.761-.841.991l.08-.051a2,2,0,0,1-2-1.193,3.057,3.057,0,0,1-.1-2.368A4.512,4.512,0,0,1,50.584,52.8a4.63,4.63,0,0,1,2.787-.933c.06,0,.12.007.179.009a12.172,12.172,0,0,1,3.235,1.073l.114.067L56.873,53a14.9,14.9,0,0,1,1.679,1.188c1.679,1.819,6.82,8.108,1.291,11.613a3.215,3.215,0,0,1-.562-.052,3.357,3.357,0,0,1-1.16-.242,10.245,10.245,0,0,1-1.139-.534.529.529,0,0,1-.484-.38.824.824,0,0,1,.467-.783l.108-.062a.578.578,0,0,0,.138-.116.544.544,0,0,0-.056-.764,2.173,2.173,0,0,0-1.823-.493,2.891,2.891,0,0,0-1.95,1.388,5.182,5.182,0,0,0-.59,1.383,6.864,6.864,0,0,0-.827-1.094l-.065-.049a5.642,5.642,0,0,0-1.887-1.126c-.187-.062-.375-.114-.568-.157-.174-.034-.316-.075-.508-.1a5.811,5.811,0,0,0-1.177-.062,5.123,5.123,0,0,0-4.05,2.456,4.326,4.326,0,0,0,.189,4.8A3.043,3.043,0,0,0,46.107,71a2.086,2.086,0,0,0,2.116-1.087l.03-.049a1.737,1.737,0,0,0,.043-.746.687.687,0,0,0-.474-.519c.273.39,0,.669-.23.927l.03-.049a1.411,1.411,0,0,1-1.937-.836,2.287,2.287,0,0,1-.108-1.141A2.526,2.526,0,0,1,46,66.435a3.16,3.16,0,0,1,2.027-1.259,3.275,3.275,0,0,1,.659-.056l.407.013c.049,0,.1.007.149.011l-.034.019s5.441,3.994-1.633,7.808l-.9.043a53.676,53.676,0,0,1-9.9-.41L34.3,72.239l-2.454-.523c-.824-.157-1.625-.4-2.443-.6s-1.629-.422-2.428-.688c-1.612-.485-3.2-1.066-4.759-1.709A41.151,41.151,0,0,1,17.7,66.653l-.312-.176ZM65,28.894c.026-.032.056-.064.08-.1a9.549,9.549,0,0,0,1.489-2.945,8.844,8.844,0,0,0-.579-6.814,8.138,8.138,0,0,0-1.067-1.531,4.832,4.832,0,0,0-.753-.7,6.99,6.99,0,0,0-.785-.536,6.85,6.85,0,0,0-3.818-1.01,5.445,5.445,0,0,0-4.048,2.07,4.465,4.465,0,0,0-.955,2.613,4.1,4.1,0,0,0,.678,2.443,2.642,2.642,0,0,1-.824-.755,4.152,4.152,0,0,1-.689-2.345,5.2,5.2,0,0,1,.7-2.593,6.722,6.722,0,0,1,4.778-3.252,7.847,7.847,0,0,1,1.6-.114l.895.054c.269.021.536.054.805.1a11.322,11.322,0,0,1,3.207,1.188,11.391,11.391,0,0,1,2.839,2.636,16.361,16.361,0,0,1,1.427,2.374c-.2.195-.4.39-.583.605a9.379,9.379,0,0,0-1.251,2,8.729,8.729,0,0,0-.706,2.319,8.327,8.327,0,0,0,.643,4.875,6.9,6.9,0,0,0,3.932,3.552,6.01,6.01,0,0,0,2.927.264,5.165,5.165,0,0,0,1.567-.521,4.967,4.967,0,0,0,1.375-1.045l.151-.169.084-.129a5.415,5.415,0,0,0,.715-1.476,3.731,3.731,0,0,0-.082-2.374,2.787,2.787,0,0,1,.276.459,4.107,4.107,0,0,1,.09,3.041,5.319,5.319,0,0,1-.826,1.544,4.077,4.077,0,0,1-.555.613,6.053,6.053,0,0,1-.734.543,7.712,7.712,0,0,1-3.687,1.1,8,8,0,0,1-3.952-.984,8.621,8.621,0,0,1-3.235-2.861A13.1,13.1,0,0,1,65,28.894Zm5.792,7.16c.151.052.306.084.46.127-.1.036-.2.082-.3.12C70.9,36.219,70.849,36.137,70.793,36.055Zm1.571,11.881.043.017C72.433,47.969,72.405,47.958,72.364,47.936Zm9.575,1.993a15.931,15.931,0,0,1-1.664,6.6,21.328,21.328,0,0,1-5.949,7.177,31.678,31.678,0,0,1-3.605,2.482,14.558,14.558,0,0,0-.443-5.525A15.7,15.7,0,0,0,67.636,55.3a8.96,8.96,0,0,0,2.632.613,9.861,9.861,0,0,0,5.116-.985,7.405,7.405,0,0,0,2.184-1.639,8.342,8.342,0,0,0,1.494-2.284,7.209,7.209,0,0,0,.185-5.566,6.646,6.646,0,0,0-.7-1.315A5.159,5.159,0,0,0,77.467,43a5.44,5.44,0,0,0-2.888-1.19A4.159,4.159,0,0,0,71.3,42.986a3.321,3.321,0,0,0-.947,1.836,2.87,2.87,0,0,0,.581,2.329l.075.092.075.06a2.991,2.991,0,0,0,.82.48,1.066,1.066,0,0,1-.157.1,1.17,1.17,0,0,1-.347.092,1.932,1.932,0,0,1-.919-.139,2.656,2.656,0,0,1-1.522-1.454,4.133,4.133,0,0,1-.226-2.387,4.8,4.8,0,0,1,1.093-2.242,5.836,5.836,0,0,1,4.653-1.909,6.79,6.79,0,0,1,1.315.212l.753.215c.209.066.411.142.611.227a8.279,8.279,0,0,1,2.193,1.487,9.4,9.4,0,0,1,2.4,5.6l.056.292c.024.169.082.607.1.946C81.948,49.176,81.926,49.562,81.939,49.929ZM86.95,31.272a18.67,18.67,0,0,1-.919,5.131,11.107,11.107,0,0,1-2.206,3.835,13.765,13.765,0,0,0-1.289-1.478l-.1-.1-.041-.034a12.82,12.82,0,0,0-3.627-2.194c-.347-.129-.7-.242-1.059-.335l-.7-.165a8.946,8.946,0,0,0,.93-.412,6.888,6.888,0,0,0,3.3-8.43,4.6,4.6,0,0,0-3.816-2.9,3.007,3.007,0,0,0-2.361.879,1.953,1.953,0,0,0-.269,2.523l.009.011.015.013a2.556,2.556,0,0,0,.919.39.867.867,0,0,1,.506.463,1.534,1.534,0,0,1-.347,1.418,2.8,2.8,0,0,1-2.974.549A4.147,4.147,0,0,1,70.505,28.3a6.133,6.133,0,0,1,.915-6.366,7.608,7.608,0,0,1,6.02-2.72,10.742,10.742,0,0,1,3.357.7,10.277,10.277,0,0,1,2.9,1.832,11.1,11.1,0,0,1,2.662,4.382,12.974,12.974,0,0,1,.553,2.531A20.99,20.99,0,0,1,86.95,31.272Z" transform="translate(-17.388 -11.545)" fill="#257bc1"/>
        <path id="Path_1452" data-name="Path 1452" d="M34.534,26.428a.859.859,0,1,0-.829.887A.858.858,0,0,0,34.534,26.428Z" transform="translate(-4.011 0.718)" fill="#257bc1"/>
        <path id="Path_1453" data-name="Path 1453" d="M41.618,29.936a.859.859,0,1,0-.887-.829A.86.86,0,0,0,41.618,29.936Z" transform="translate(2.849 3.004)" fill="#257bc1"/>
        <path id="Path_1454" data-name="Path 1454" d="M42.344,18.472a.858.858,0,1,0-.828.887A.857.857,0,0,0,42.344,18.472Z" transform="translate(2.761 -6.014)" fill="#257bc1"/>
        <path id="Path_1455" data-name="Path 1455" d="M30.072,31.7a.429.429,0,1,0-.442-.414A.429.429,0,0,0,30.072,31.7Z" transform="translate(-6.77 5.297)" fill="#257bc1"/>
        <path id="Path_1456" data-name="Path 1456" d="M33.481,30.913a.858.858,0,1,0-.828.887A.857.857,0,0,0,33.481,30.913Z" transform="translate(-4.923 4.63)" fill="#257bc1"/>
        <path id="Path_1457" data-name="Path 1457" d="M31.706,35.461a.858.858,0,1,0-.828.887A.857.857,0,0,0,31.706,35.461Z" transform="translate(-6.462 8.598)" fill="#257bc1"/>
        <path id="Path_1458" data-name="Path 1458" d="M40.671,27.064a1.57,1.57,0,1,0,1.623,1.516A1.569,1.569,0,0,0,40.671,27.064Z" transform="translate(1.465 1.984)" fill="#257bc1"/>
      </g>
      <path id="Path_1459" data-name="Path 1459" d="M32.554,27.555s-5.2,4.2-1.981,9.8.5,7,.5,7,8.854-4.464,3.013-15.837Z" transform="translate(15.997 13.813)" fill="#17445f"/>
      <path id="Path_1460" data-name="Path 1460" d="M39.045,47.724c6.571-3.282,13.851-5.347,17.236-12.436a48.614,48.614,0,0,0,3.682-13.722c.082-.553-4.325-2.472-4.737-2.66A32.3,32.3,0,0,0,43.284,15.88C28.37,15.2,15.834,27.44,13.634,41.408a25.867,25.867,0,0,0,7.259,22.823l.038-.007a31.073,31.073,0,0,0,10.2,6.828,6.5,6.5,0,0,1,1.579.811s5.374,4.682,11.828,2.681c0,0-4.275-1.461-2.931-3.923.637-1.168,2.054-1.758,3.221-2.279A21.261,21.261,0,0,1,49.689,66.9c1.026-.191,2.445-.678,3.4-.043C48.947,64.1,44.247,64.233,39.441,65c-3.038.484-6.928,2.4-9.874.635a4.318,4.318,0,0,1-1.861-2.658l-2.359.435,2.321-.43a5.652,5.652,0,0,1-.179-1.08C26.993,54.8,33.324,50.583,39.045,47.724Z" transform="translate(1.946 3.906)" fill="#17445f"/>
      <circle id="Ellipse_119" data-name="Ellipse 119" cx="1.522" cy="1.522" r="1.522" transform="translate(44.87 28.193)" fill="#fff"/>
    </g>
  </g>
</svg>
