<?xml version="1.0" encoding="utf-8"?>
<!-- Generator: Adobe Illustrator 22.1.0, SVG Export Plug-In . SVG Version: 6.00 Build 0)  -->
<svg version="1.1" xmlns="http://www.w3.org/2000/svg" xmlns:xlink="http://www.w3.org/1999/xlink" x="0px" y="0px"
	 viewBox="0 0 344.1 214.3" style="enable-background:new 0 0 344.1 214.3;" xml:space="preserve">
<style type="text/css">
	.st0{display:none;}
	.st1{opacity:0.3;}
	.st2{opacity:0.2;fill:none;stroke:#1A1311;stroke-miterlimit:10;enable-background:new    ;}
	.st3{opacity:0.1;}
</style>
<g id="圖層_2" class="st0">
</g>
<g id="圖層_1">
	<g id="Group_1734" transform="translate(-37.5 -2046.5)" class="st1">
		<g id="雲紋" transform="translate(16.064 2038.5)">
			<path id="Path_220" class="st2" d="M118.8,155.8c2.3,0,4.2-1.9,4.2-4.3l0,0c0-2.3-1.9-4.2-4.3-4.3H91.6c-2.3,0-4.3-0.9-4.3-2
				s1.9-2,4.3-2h10.9c2.3,0,4.2-1.9,4.3-4.3l0,0c0-2.3-1.9-4.2-4.3-4.3H52.9c-2.3,0-4.2,1.9-4.3,4.3l0,0c0,2.3,1.9,4.2,4.3,4.3h10.9
				c2.3,0,4.3,0.9,4.3,2s-1.9,2-4.3,2H26.2c-2.3,0-4.2,1.9-4.3,4.3l0,0c0,2.3,1.9,4.2,4.3,4.3h22.1c2.3,0,4.3,0.9,4.3,2
				c0,1.1-1.9,2-4.3,2H33c-2.3,0-4.2,1.9-4.3,4.3l0,0c0,2.3,1.9,4.2,4.3,4.3h49.6c2.3,0,4.2-1.9,4.3-4.3l0,0c0-2.3-1.9-4.2-4.3-4.3
				H67.4c-2.3,0-4.3-0.9-4.3-2c0-1.1,1.9-2,4.3-2L118.8,155.8z"/>
			<path id="Path_227" class="st2" d="M268.2,81.8c-2.3,0-4.2-1.9-4.3-4.3l0,0c0-2.3,1.9-4.2,4.3-4.3h27.1c2.3,0,4.3-0.9,4.3-2
				s-1.9-2-4.3-2h-10.9c-2.3,0-4.2-1.9-4.3-4.3l0,0c0-2.3,1.9-4.2,4.3-4.3H334c2.3,0,4.2,1.9,4.3,4.3l0,0c0,2.3-1.9,4.2-4.3,4.3
				h-10.9c-2.3,0-4.3,0.9-4.3,2s1.9,2,4.3,2h37.7c2.3,0,4.2,1.9,4.2,4.3l0,0c0,2.3-1.9,4.2-4.3,4.3h-22.1c-2.3,0-4.3,0.9-4.3,2
				s1.9,2,4.3,2h15.3c2.3,0,4.3,1.9,4.3,4.3l0,0c0,2.3-1.9,4.2-4.3,4.3h-49.6c-2.3,0-4.2-1.9-4.3-4.3l0,0c0-2.3,1.9-4.2,4.3-4.3
				h15.3c2.3,0,4.3-0.9,4.3-2s-1.9-2-4.3-2L268.2,81.8z"/>
			<path id="Path_221" class="st2" d="M217.1,29.4c2.3,0,4.2-1.9,4.3-4.3l0,0c0-2.3-1.9-4.2-4.3-4.3h-27.1c-2.3,0-4.3-0.9-4.3-2
				s1.9-2,4.3-2h30.9c2.3,0,4.2-1.9,4.3-4.3l0,0c0-2.3-1.9-4.2-4.3-4.3h-89.6c-2.3,0-4.2,1.9-4.3,4.3l0,0c0,2.3,1.9,4.2,4.3,4.3
				h30.9c2.3,0,4.3,0.9,4.3,2s-1.9,2-4.3,2H94.5c-2.3,0-4.2,1.9-4.3,4.3l0,0c0,2.3,1.9,4.2,4.3,4.3h52.1c2.3,0,4.3,0.9,4.3,2
				s-1.9,2-4.3,2h-15.3c-2.3,0-4.2,1.9-4.3,4.3l0,0c0,2.3,1.9,4.2,4.3,4.3H181c2.3,0,4.2-1.9,4.3-4.3l0,0c0-2.3-1.9-4.2-4.3-4.3
				h-15.3c-2.3,0-4.3-0.9-4.3-2s1.9-2,4.3-2L217.1,29.4z"/>
			<path id="Path_226" class="st2" d="M149.3,209.4c-2.3,0-4.2-1.9-4.3-4.3l0,0c0-2.3,1.9-4.2,4.3-4.3h27.1c2.3,0,4.3-0.9,4.3-2
				c0-1.1-1.9-2-4.3-2h-30.9c-2.3,0-4.2-1.9-4.3-4.3l0,0c0-2.3,1.9-4.2,4.3-4.3h89.6c2.3,0,4.2,1.9,4.3,4.3l0,0
				c0,2.3-1.9,4.2-4.3,4.3h-30.9c-2.3,0-4.3,0.9-4.3,2c0,1.1,1.9,2,4.3,2h67.7c2.3,0,4.2,1.9,4.3,4.3l0,0c0,2.3-1.9,4.2-4.3,4.3
				h-52.1c-2.3,0-4.3,0.9-4.3,2s1.9,2,4.3,2H235c2.3,0,4.2,1.9,4.3,4.3l0,0c0,2.3-1.9,4.2-4.3,4.3h-49.6c-2.3,0-4.2-1.9-4.3-4.3l0,0
				c0-2.3,1.9-4.2,4.3-4.3h15.3c2.3,0,4.3-0.9,4.3-2s-1.9-2-4.3-2L149.3,209.4z"/>
		</g>
		<g id="水紋" transform="translate(-146.024 2052.921)" class="st3">
			<path id="Path_222" d="M354.2,124.8c0.3,0.6,0.7,1.2,0.9,1.8c1.1-0.5,2.4-0.6,3.5-0.1c0.3-0.6,0.6-1.2,0.9-1.8
				c-0.8-0.4-1.7-0.5-2.6-0.5C356.1,124.2,355.1,124.4,354.2,124.8z"/>
			<path id="Path_223" d="M350.5,120.4c0.5,0.5,1,0.9,1.5,1.5c3-1.7,6.8-1.8,9.8-0.1c0.5-0.5,1-1,1.5-1.4
				C359.4,117.9,354.4,117.9,350.5,120.4L350.5,120.4z"/>
			<path id="Path_224" d="M345.4,117.1c0.7,0.3,1.3,0.6,2,1c5.6-4.3,13.5-4.4,19.1-0.1c0.7-0.4,1.3-0.7,2-1
				C361.9,111.4,352.1,111.4,345.4,117.1L345.4,117.1z"/>
			<path id="Path_225" d="M379.9,73.2c-0.9,0-1.8,0.1-2.7,0.2c-6.8-11.1-21.4-14.6-32.5-7.8c-3.2,1.9-5.8,4.6-7.8,7.8
				c-9.7-1.3-19.2,3.7-23.8,12.3c0.7,0.1,1.3,0.3,2,0.5c3.8-6.8,11.1-11,18.9-11c0.6,0,1.3,0,1.9,0.1c0.4,0,0.7,0.1,1.1,0.1
				s0.7,0.1,1,0.2c1.2,0.2,2.5,0.6,3.7,1c0.3,0.1,0.6,0.2,0.9,0.4c0.3,0.1,0.6,0.3,0.9,0.4c1.1,0.5,2.1,1.2,3.1,1.9
				c0.3,0.2,0.5,0.4,0.8,0.6s0.5,0.4,0.8,0.6c1,0.9,1.9,1.8,2.7,2.8c0.3,0.3,0.5,0.6,0.7,1c0.2,0.3,0.4,0.6,0.6,0.8
				c-1.3,0.3-2.5,0.6-3.7,1.1c-0.5-0.7-1-1.3-1.6-1.9c-0.3-0.3-0.6-0.6-0.9-0.8c-0.3-0.2-0.6-0.5-0.8-0.7c-1-0.8-2.1-1.5-3.2-2
				c-0.3-0.1-0.6-0.3-0.9-0.4s-0.6-0.2-0.9-0.3c-1.2-0.4-2.4-0.7-3.6-0.9c-0.3,0-0.7-0.1-1-0.1s-0.7,0-1-0.1c-0.2,0-0.3,0-0.5,0
				c-6.4,0-12.2,3.4-15.5,8.8c0.6,0.3,1.1,0.7,1.7,1.1c2.9-4.9,8.1-7.9,13.8-7.9h0c0.3,0,0.7,0,1,0.1s0.7,0,1,0.1
				c1.2,0.2,2.4,0.4,3.6,0.9c0.3,0.1,0.6,0.2,0.9,0.4s0.6,0.3,0.9,0.4c1.2,0.7,2.4,1.5,3.4,2.4c0.3,0.3,0.7,0.6,1,1
				c0.3,0.3,0.6,0.6,0.8,1c-1.1,0.5-2.2,1.2-3.2,1.9c-0.7-0.8-1.4-1.5-2.3-2.1c-0.3-0.2-0.7-0.5-1-0.7c-0.3-0.2-0.7-0.4-1-0.5
				c-1.2-0.5-2.4-0.9-3.6-1c-0.3,0-0.7-0.1-1-0.1c-0.2,0-0.3,0-0.5,0s-0.3,0-0.5,0c-4.4,0.2-8.4,2.7-10.5,6.7c0.5,0.5,1,1.1,1.4,1.7
				c1.5-3.7,5-6.2,9-6.4c0.2,0,0.3,0,0.5,0s0.3,0,0.5,0c0.3,0,0.7,0,1,0.1c1.8,0.3,3.5,1,4.9,2.1c0.5,0.4,0.9,0.8,1.3,1.2
				c0.1,0.1,0.1,0.1,0.2,0.2c-1,0.8-1.8,1.7-2.7,2.6l0,0c-1.3-1.6-3.2-2.6-5.3-2.6c0,0-0.1,0-0.1,0c-3.6,0.1-6.5,2.9-6.5,6.5
				c-0.2,0.1-0.4,0.1-0.6,0.2c0.3,0.6,0.5,1.2,0.7,1.9c2.1-0.7,4.4-1.1,6.6-1.1c0.6,0,1.3,0,1.9,0.1c0.4,0,0.7,0.1,1.1,0.1
				c0.3,0,0.7,0.1,1,0.2c1.2,0.2,2.5,0.6,3.7,1c0.3,0.1,0.6,0.2,0.9,0.4c0.3,0.1,0.6,0.3,0.9,0.4c1.1,0.5,2.1,1.2,3.1,1.9
				c0.3,0.2,0.5,0.4,0.8,0.6c0.3,0.2,0.5,0.4,0.8,0.6c1,0.9,1.9,1.8,2.7,2.8c0.3,0.3,0.5,0.6,0.7,1c0.2,0.3,0.4,0.6,0.6,0.8
				c-1.3,0.3-2.5,0.6-3.7,1.1c-0.5-0.7-1-1.3-1.6-1.9c-0.3-0.3-0.6-0.6-0.9-0.8c-0.3-0.2-0.6-0.5-0.8-0.7c-1-0.8-2.1-1.5-3.2-2
				c-0.3-0.1-0.6-0.3-0.9-0.4s-0.6-0.2-0.9-0.3c-1.2-0.4-2.4-0.7-3.6-0.9c-0.3,0-0.7-0.1-1-0.1s-0.7,0-1-0.1c-0.2,0-0.3,0-0.5,0
				c-1.2,0-2.3,0.1-3.4,0.3c1,0.5,1.9,1,2.8,1.7c0.2,0,0.4,0,0.6,0h0c0.3,0,0.7,0,1,0.1s0.7,0,1,0.1c1.2,0.2,2.4,0.4,3.6,0.9
				c0.3,0.1,0.6,0.2,0.9,0.4s0.6,0.3,0.9,0.4c1.2,0.7,2.4,1.5,3.4,2.4c0.3,0.3,0.7,0.6,1,1c0.3,0.3,0.6,0.6,0.8,1
				c-1.1,0.5-2.2,1.2-3.2,1.9c-0.7-0.8-1.4-1.5-2.3-2.1c-0.3-0.2-0.7-0.5-1-0.7c-0.3-0.2-0.7-0.4-1-0.5c-0.5-0.2-1-0.4-1.5-0.6
				c0.7,0.9,1.3,1.9,1.8,3c0.9,0.5,1.7,1.2,2.3,1.9c0.1,0.1,0.1,0.1,0.2,0.2c-0.4,0.3-0.8,0.7-1.2,1.1l1.4,1.4
				c8.3-8,21.5-8.1,29.9-0.1l1.4-1.4c-0.4-0.4-0.8-0.7-1.2-1.1l0.1-0.1c0.7-0.8,1.5-1.4,2.3-1.9c0.5-1,1.1-2,1.8-3
				c-0.5,0.2-1,0.4-1.5,0.6c-0.3,0.2-0.7,0.3-1,0.5c-0.4,0.2-0.7,0.4-1,0.7c-0.8,0.6-1.5,1.3-2.2,2c-1-0.7-2.1-1.3-3.2-1.9
				c0.2-0.3,0.5-0.6,0.7-0.9c0.3-0.3,0.6-0.7,1-1c1-0.9,2.2-1.8,3.4-2.4c0.3-0.2,0.6-0.3,0.9-0.4s0.6-0.3,0.9-0.4
				c1.2-0.4,2.3-0.7,3.6-0.9c0.3,0,0.7-0.1,1-0.1s0.7-0.1,1-0.1h0c0.2,0,0.4,0,0.6,0c0.9-0.6,1.8-1.2,2.8-1.7
				c-1.1-0.2-2.3-0.3-3.4-0.3c-0.2,0-0.3,0-0.5,0c-0.3,0-0.7,0-1,0.1s-0.7,0.1-1,0.1c-1.2,0.2-2.4,0.5-3.6,0.9
				c-0.3,0.1-0.6,0.2-0.9,0.3s-0.6,0.3-0.9,0.4c-1.1,0.6-2.2,1.2-3.2,2c-0.3,0.2-0.6,0.5-0.8,0.7c-0.3,0.3-0.6,0.5-0.9,0.8
				c-0.6,0.6-1.1,1.2-1.5,1.8c-1.2-0.5-2.5-0.8-3.7-1.1c0.2-0.3,0.3-0.5,0.5-0.8c0.2-0.3,0.5-0.7,0.7-1c0.8-1,1.7-2,2.7-2.8
				c0.3-0.2,0.5-0.4,0.8-0.6c0.3-0.2,0.5-0.4,0.8-0.6c1-0.7,2-1.3,3.1-1.9c0.3-0.1,0.6-0.3,0.9-0.4c0.3-0.1,0.6-0.3,0.9-0.4
				c1.2-0.4,2.4-0.8,3.7-1c0.3-0.1,0.7-0.1,1-0.2c0.3,0,0.7-0.1,1.1-0.1c0.6-0.1,1.3-0.1,1.9-0.1c2.3,0,4.5,0.4,6.6,1.1
				c0.2-0.6,0.4-1.3,0.7-1.9c-0.2-0.1-0.4-0.2-0.6-0.2c-0.1-3.6-3-6.4-6.5-6.5c0,0-0.1,0-0.1,0c-2,0-3.9,0.9-5.1,2.4
				c-0.8-0.9-1.7-1.8-2.6-2.6c0,0,0,0,0.1-0.1c0.7-0.8,1.5-1.5,2.4-2c1.2-0.7,2.5-1.2,3.8-1.4c0.3,0,0.7-0.1,1-0.1
				c0.2,0,0.3,0,0.5,0s0.3,0,0.5,0c4,0.2,7.5,2.7,9,6.4c0.4-0.6,0.9-1.1,1.4-1.7c-2-4-6-6.5-10.5-6.7c-0.2,0-0.3,0-0.5,0
				s-0.3,0-0.5,0c-0.3,0-0.7,0-1,0.1c-1.3,0.2-2.5,0.5-3.6,1c-0.3,0.2-0.7,0.3-1,0.5c-0.4,0.2-0.7,0.4-1,0.7c-0.8,0.6-1.5,1.3-2.2,2
				c-1-0.7-2.1-1.3-3.2-1.9c0.2-0.3,0.5-0.6,0.7-0.9c0.3-0.3,0.6-0.7,1-1c1-0.9,2.2-1.8,3.4-2.4c0.3-0.2,0.6-0.3,0.9-0.4
				s0.6-0.3,0.9-0.4c1.2-0.4,2.3-0.7,3.6-0.9c0.3,0,0.7-0.1,1-0.1s0.7-0.1,1-0.1h0c5.7,0,10.9,3,13.8,7.9c0.5-0.4,1.1-0.7,1.7-1.1
				c-3.2-5.5-9.1-8.8-15.5-8.8c-0.2,0-0.3,0-0.5,0c-0.3,0-0.7,0-1,0.1s-0.7,0.1-1,0.1c-1.2,0.2-2.4,0.5-3.6,0.9
				c-0.3,0.1-0.6,0.2-0.9,0.3s-0.6,0.3-0.9,0.4c-1.1,0.6-2.2,1.2-3.2,2c-0.3,0.2-0.6,0.5-0.8,0.7c-0.3,0.3-0.6,0.5-0.9,0.8
				c-0.6,0.6-1.1,1.2-1.5,1.8c-1.2-0.5-2.5-0.8-3.7-1.1c0.2-0.3,0.3-0.5,0.5-0.8c0.2-0.3,0.5-0.7,0.7-1c0.8-1,1.7-2,2.7-2.8
				c0.3-0.2,0.5-0.4,0.8-0.6c0.3-0.2,0.5-0.4,0.8-0.6c1-0.7,2-1.3,3.1-1.9c0.3-0.1,0.6-0.3,0.9-0.4c0.3-0.1,0.6-0.3,0.9-0.4
				c1.2-0.5,2.4-0.8,3.7-1c0.3-0.1,0.7-0.1,1-0.2c0.3,0,0.7-0.1,1.1-0.1c0.6-0.1,1.3-0.1,1.9-0.1c7.8,0,15,4.2,18.9,11
				c0.6-0.2,1.3-0.4,2-0.5C396.6,78,388.6,73.2,379.9,73.2z M336.9,95.9c-2.5-0.3-5.1-0.2-7.6,0.3c0.3-2.3,2.3-4,4.6-4
				c0.1,0,0.2,0,0.4,0c1.5,0.1,2.8,0.9,3.6,2.2C337.5,94.9,337.2,95.4,336.9,95.9z M377.1,93.1c0.7-0.5,1.5-0.8,2.4-0.9
				c0.1,0,0.2,0,0.4,0c2.3,0,4.3,1.7,4.6,4c-2.4-0.5-4.9-0.6-7.3-0.3c-0.4-0.6-0.7-1.1-1.1-1.7C376.3,93.8,376.7,93.4,377.1,93.1z
				 M360.6,105.7c-0.4,0.5-0.7,1.1-1.1,1.6c-1.8-0.2-3.5-0.2-5.3,0c-0.3-0.6-0.7-1.1-1.1-1.7c1.4-2.1,4.3-2.7,6.5-1.3
				c0.4,0.3,0.8,0.6,1.1,1.1C360.7,105.5,360.6,105.6,360.6,105.7z M364.4,101.5c-0.9,0.8-1.7,1.6-2.4,2.4c-2.4-2.8-6.6-3-9.4-0.6
				c-0.3,0.2-0.5,0.5-0.7,0.8c-0.8-0.9-1.7-1.8-2.6-2.6c3.8-4.3,10.2-4.7,14.5-0.9c0.3,0.2,0.5,0.5,0.8,0.8
				C364.6,101.4,364.5,101.4,364.4,101.5z M369.2,98.3c-1,0.5-2,1.1-3,1.8c-4.5-5.1-12.3-5.5-17.3-1c-0.4,0.4-0.8,0.7-1.1,1.1
				c-1-0.7-2.1-1.4-3.2-1.9c5.5-6.9,15.6-8,22.4-2.5c0.9,0.7,1.7,1.5,2.4,2.4C369.3,98.2,369.3,98.2,369.2,98.3z M375,96.2
				c-0.1,0-0.2,0-0.3,0.1c-1.2,0.3-2.3,0.6-3.5,1.1c-6-7.9-17.3-9.4-25.1-3.4c-1.3,1-2.5,2.2-3.4,3.5c-1.2-0.5-2.4-0.9-3.7-1.1
				c6.6-10,20.1-12.7,30-6C371.4,91.8,373.4,93.9,375,96.2z M353.2,83.1c1.4-2.1,4.3-2.7,6.5-1.3c0.4,0.3,0.8,0.6,1.1,1.1
				c0,0.1-0.1,0.1-0.1,0.2c-0.4,0.5-0.7,1.1-1.1,1.6c-1.8-0.2-3.5-0.2-5.3,0C353.9,84.2,353.5,83.7,353.2,83.1L353.2,83.1z
				 M364.4,78.9c-0.9,0.8-1.7,1.6-2.4,2.4c-2.4-2.8-6.6-3-9.4-0.6c-0.3,0.2-0.5,0.5-0.7,0.8c-0.8-0.9-1.7-1.8-2.6-2.6
				c3.8-4.3,10.2-4.7,14.5-0.9c0.3,0.2,0.5,0.5,0.8,0.8C364.6,78.8,364.5,78.9,364.4,78.9L364.4,78.9z M369.2,75.7
				c-1,0.5-2,1.1-3,1.8c-4.5-5.1-12.3-5.5-17.3-1c-0.4,0.4-0.8,0.7-1.1,1.1c-1-0.7-2.1-1.4-3.2-1.9c5.5-6.9,15.6-8,22.4-2.5
				c0.9,0.7,1.7,1.5,2.4,2.4C369.3,75.7,369.3,75.7,369.2,75.7L369.2,75.7z M374.7,73.7c-1.2,0.3-2.3,0.6-3.5,1.1
				c-6-7.9-17.3-9.4-25.1-3.4c-1.3,1-2.5,2.2-3.4,3.5c-1.2-0.5-2.4-0.9-3.7-1.1c6.6-10,20.1-12.7,30-6c2.4,1.6,4.4,3.6,6,6
				C374.9,73.7,374.8,73.7,374.7,73.7L374.7,73.7z"/>
		</g>
	</g>
</g>
</svg>
